<svg xmlns="http://www.w3.org/2000/svg" viewBox="0 0 120 120"><rect width="120" height="120" fill="#f3e7cf"/><rect x="4" y="4" width="112" height="112" fill="none" stroke="#07345f" stroke-width="5"/><g fill="#07345f"><path d="M60 15c10 18 10 30 0 42-10-12-10-24 0-42zM60 105c-10-18-10-30 0-42 10 12 10 24 0 42zM15 60c18-10 30-10 42 0-12 10-24 10-42 0zM105 60c-18 10-30 10-42 0 12-10 24-10 42 0z"/><circle cx="60" cy="60" r="8"/><circle cx="30" cy="30" r="7"/><circle cx="90" cy="30" r="7"/><circle cx="30" cy="90" r="7"/><circle cx="90" cy="90" r="7"/></g></svg>
