<svg xmlns="http://www.w3.org/2000/svg" viewBox="0 0 120 120"><rect width="120" height="120" fill="#f3e7cf"/><rect x="4" y="4" width="112" height="112" fill="none" stroke="#07345f" stroke-width="5"/><g fill="#07345f"><path d="M42 43 32 23l24 13zM78 36l24-13-10 20z"/><path d="M38 45c4-28 40-28 44 0 16 7 18 35 6 50-14 18-42 18-56 0-12-15-10-43 6-50z"/><path fill="#f3e7cf" d="M54 38c3 18 2 30-5 40 7-4 15-4 22 0-7-10-8-22-5-40-5 5-7 5-12 0z"/><ellipse cx="49" cy="55" rx="5" ry="4" fill="#f3e7cf"/><ellipse cx="71" cy="55" rx="5" ry="4" fill="#f3e7cf"/><circle cx="50" cy="55" r="2"/><circle cx="70" cy="55" r="2"/><path fill="#f3e7cf" d="M55 75c4 8 10 8 14 0 0 13-14 13-14 0z"/><circle cx="22" cy="22" r="5"/><circle cx="98" cy="22" r="5"/><circle cx="22" cy="98" r="5"/><circle cx="98" cy="98" r="5"/></g></svg>
